<mxfile host="app.diagrams.net" agent="Mozilla/5.0 (Windows NT 10.0; Win64; x64; rv:133.0) Gecko/20100101 Firefox/133.0" version="26.0.2">
  <diagram name="Page-1" id="2YBvvXClWsGukQMizWep">
    <mxGraphModel dx="1434" dy="1846" grid="1" gridSize="10" guides="1" tooltips="1" connect="1" arrows="1" fold="1" page="1" pageScale="1" pageWidth="850" pageHeight="1100" math="0" shadow="0">
      <root>
        <mxCell id="0" />
        <mxCell id="1" parent="0" />
        <mxCell id="CObYJEAy56xA2G8EUnc1-23" value="redirectToProfilePage(message)" style="html=1;verticalAlign=bottom;endArrow=open;dashed=1;endSize=8;curved=0;rounded=0;exitX=0.5;exitY=0.705;exitDx=0;exitDy=0;exitPerimeter=0;" parent="1" edge="1">
          <mxGeometry x="-0.0028" relative="1" as="geometry">
            <mxPoint x="330" y="411.1999999999998" as="sourcePoint" />
            <mxPoint x="130.81034482758616" y="411.1999999999998" as="targetPoint" />
            <mxPoint as="offset" />
          </mxGeometry>
        </mxCell>
        <mxCell id="CObYJEAy56xA2G8EUnc1-1" value="API" style="shape=umlLifeline;perimeter=lifelinePerimeter;whiteSpace=wrap;html=1;container=1;dropTarget=0;collapsible=0;recursiveResize=0;outlineConnect=0;portConstraint=eastwest;newEdgeStyle={&quot;edgeStyle&quot;:&quot;elbowEdgeStyle&quot;,&quot;elbow&quot;:&quot;vertical&quot;,&quot;curved&quot;:0,&quot;rounded&quot;:0};" parent="1" vertex="1">
          <mxGeometry x="280" y="40" width="100" height="560" as="geometry" />
        </mxCell>
        <mxCell id="vXKSp53bt_YOnUHlEbE3-1" value="" style="html=1;points=[[0,0,0,0,5],[0,1,0,0,-5],[1,0,0,0,5],[1,1,0,0,-5]];perimeter=orthogonalPerimeter;outlineConnect=0;targetShapes=umlLifeline;portConstraint=eastwest;newEdgeStyle={&quot;curved&quot;:0,&quot;rounded&quot;:0};" parent="CObYJEAy56xA2G8EUnc1-1" vertex="1">
          <mxGeometry x="45" y="80" width="10" height="460" as="geometry" />
        </mxCell>
        <mxCell id="CObYJEAy56xA2G8EUnc1-6" value="" style="shape=umlLifeline;perimeter=lifelinePerimeter;whiteSpace=wrap;html=1;container=1;dropTarget=0;collapsible=0;recursiveResize=0;outlineConnect=0;portConstraint=eastwest;newEdgeStyle={&quot;curved&quot;:0,&quot;rounded&quot;:0};participant=umlActor;" parent="1" vertex="1">
          <mxGeometry x="121" y="40" width="20" height="560" as="geometry" />
        </mxCell>
        <mxCell id="CObYJEAy56xA2G8EUnc1-7" value="Company" style="text;html=1;align=center;verticalAlign=middle;resizable=0;points=[];autosize=1;strokeColor=none;fillColor=none;" parent="1" vertex="1">
          <mxGeometry x="60" y="50" width="70" height="30" as="geometry" />
        </mxCell>
        <mxCell id="CObYJEAy56xA2G8EUnc1-9" value="closeInternship(internshipData)" style="text;html=1;align=center;verticalAlign=middle;resizable=0;points=[];autosize=1;strokeColor=none;fillColor=none;" parent="1" vertex="1">
          <mxGeometry x="135" y="96" width="190" height="30" as="geometry" />
        </mxCell>
        <mxCell id="CObYJEAy56xA2G8EUnc1-14" value="alternative" style="shape=umlFrame;whiteSpace=wrap;html=1;pointerEvents=0;width=80;height=30;" parent="1" vertex="1">
          <mxGeometry x="95" y="200" width="795" height="420" as="geometry" />
        </mxCell>
        <mxCell id="CObYJEAy56xA2G8EUnc1-15" value="&lt;b&gt;Interaction&lt;/b&gt; Close an internship" style="shape=umlFrame;whiteSpace=wrap;html=1;pointerEvents=0;width=210;height=30;" parent="1" vertex="1">
          <mxGeometry x="60" y="-20" width="860" height="680" as="geometry" />
        </mxCell>
        <mxCell id="CObYJEAy56xA2G8EUnc1-17" value="" style="endArrow=none;dashed=1;html=1;rounded=0;exitX=0;exitY=0.711;exitDx=0;exitDy=0;exitPerimeter=0;entryX=0.999;entryY=0.711;entryDx=0;entryDy=0;entryPerimeter=0;" parent="1" edge="1">
          <mxGeometry width="50" height="50" relative="1" as="geometry">
            <mxPoint x="95" y="518.73" as="sourcePoint" />
            <mxPoint x="889.2049999999999" y="518.73" as="targetPoint" />
          </mxGeometry>
        </mxCell>
        <mxCell id="CObYJEAy56xA2G8EUnc1-19" value="else" style="text;html=1;align=center;verticalAlign=middle;resizable=0;points=[];autosize=1;strokeColor=none;fillColor=none;" parent="1" vertex="1">
          <mxGeometry x="91" y="520" width="50" height="30" as="geometry" />
        </mxCell>
        <mxCell id="CObYJEAy56xA2G8EUnc1-20" value="if checkInternshipData(internshipData)" style="text;html=1;align=center;verticalAlign=middle;resizable=0;points=[];autosize=1;strokeColor=none;fillColor=none;labelBackgroundColor=default;" parent="1" vertex="1">
          <mxGeometry x="95" y="230" width="230" height="30" as="geometry" />
        </mxCell>
        <mxCell id="NZ4PiwcvvcB-_aY-qffc-5" value="" style="edgeStyle=elbowEdgeStyle;fontSize=12;html=1;endArrow=blockThin;endFill=1;rounded=0;entryX=0.158;entryY=0.867;entryDx=0;entryDy=0;entryPerimeter=0;" parent="1" edge="1">
          <mxGeometry width="160" relative="1" as="geometry">
            <mxPoint x="131.10000000000002" y="120" as="sourcePoint" />
            <mxPoint x="330.0200000000001" y="120.00999999999999" as="targetPoint" />
            <Array as="points">
              <mxPoint x="160" y="120" />
            </Array>
          </mxGeometry>
        </mxCell>
        <mxCell id="YP4vQDsvqG0cvO2UIJ0I-2" value="S&amp;amp;C" style="shape=umlLifeline;perimeter=lifelinePerimeter;whiteSpace=wrap;html=1;container=1;dropTarget=0;collapsible=0;recursiveResize=0;outlineConnect=0;portConstraint=eastwest;newEdgeStyle={&quot;edgeStyle&quot;:&quot;elbowEdgeStyle&quot;,&quot;elbow&quot;:&quot;vertical&quot;,&quot;curved&quot;:0,&quot;rounded&quot;:0};" parent="1" vertex="1">
          <mxGeometry x="510" y="40" width="100" height="560" as="geometry" />
        </mxCell>
        <mxCell id="YP4vQDsvqG0cvO2UIJ0I-3" value="" style="html=1;points=[[0,0,0,0,5],[0,1,0,0,-5],[1,0,0,0,5],[1,1,0,0,-5]];perimeter=orthogonalPerimeter;outlineConnect=0;targetShapes=umlLifeline;portConstraint=eastwest;newEdgeStyle={&quot;curved&quot;:0,&quot;rounded&quot;:0};" parent="YP4vQDsvqG0cvO2UIJ0I-2" vertex="1">
          <mxGeometry x="45" y="94" width="10" height="426" as="geometry" />
        </mxCell>
        <mxCell id="YP4vQDsvqG0cvO2UIJ0I-4" value="checkInternshipData&lt;div&gt;(internshipData)&lt;/div&gt;" style="html=1;align=left;spacingLeft=2;endArrow=block;rounded=0;edgeStyle=orthogonalEdgeStyle;curved=0;rounded=0;" parent="YP4vQDsvqG0cvO2UIJ0I-2" edge="1">
          <mxGeometry x="0.176" relative="1" as="geometry">
            <mxPoint x="55" y="97" as="sourcePoint" />
            <Array as="points">
              <mxPoint x="80" y="97" />
              <mxPoint x="80" y="117" />
            </Array>
            <mxPoint as="offset" />
            <mxPoint x="55.000000000000114" y="116.99999999999994" as="targetPoint" />
          </mxGeometry>
        </mxCell>
        <mxCell id="YP4vQDsvqG0cvO2UIJ0I-18" value="" style="html=1;points=[[0,0,0,0,5],[0,1,0,0,-5],[1,0,0,0,5],[1,1,0,0,-5]];perimeter=orthogonalPerimeter;outlineConnect=0;targetShapes=umlLifeline;portConstraint=eastwest;newEdgeStyle={&quot;curved&quot;:0,&quot;rounded&quot;:0};" parent="YP4vQDsvqG0cvO2UIJ0I-2" vertex="1">
          <mxGeometry x="50" y="100" width="10" height="31" as="geometry" />
        </mxCell>
        <mxCell id="YP4vQDsvqG0cvO2UIJ0I-6" value="S&amp;amp;C" style="shape=umlLifeline;perimeter=lifelinePerimeter;whiteSpace=wrap;html=1;container=1;dropTarget=0;collapsible=0;recursiveResize=0;outlineConnect=0;portConstraint=eastwest;newEdgeStyle={&quot;edgeStyle&quot;:&quot;elbowEdgeStyle&quot;,&quot;elbow&quot;:&quot;vertical&quot;,&quot;curved&quot;:0,&quot;rounded&quot;:0};" parent="1" vertex="1">
          <mxGeometry x="743" y="38.5" width="100" height="565" as="geometry" />
        </mxCell>
        <mxCell id="YP4vQDsvqG0cvO2UIJ0I-7" value="" style="html=1;points=[[0,0,0,0,5],[0,1,0,0,-5],[1,0,0,0,5],[1,1,0,0,-5]];perimeter=orthogonalPerimeter;outlineConnect=0;targetShapes=umlLifeline;portConstraint=eastwest;newEdgeStyle={&quot;curved&quot;:0,&quot;rounded&quot;:0};" parent="YP4vQDsvqG0cvO2UIJ0I-6" vertex="1">
          <mxGeometry x="45" y="230" width="10" height="190" as="geometry" />
        </mxCell>
        <mxCell id="CObYJEAy56xA2G8EUnc1-21" value="" style="html=1;points=[[0,0,0,0,5],[0,1,0,0,-5],[1,0,0,0,5],[1,1,0,0,-5]];perimeter=orthogonalPerimeter;outlineConnect=0;targetShapes=umlLifeline;portConstraint=eastwest;newEdgeStyle={&quot;curved&quot;:0,&quot;rounded&quot;:0};direction=west;" parent="YP4vQDsvqG0cvO2UIJ0I-6" vertex="1">
          <mxGeometry x="50" y="245" width="10" height="31" as="geometry" />
        </mxCell>
        <mxCell id="CObYJEAy56xA2G8EUnc1-22" value="writeToDb(internshipData)" style="html=1;align=left;spacingLeft=2;endArrow=block;rounded=0;edgeStyle=orthogonalEdgeStyle;curved=0;rounded=0;" parent="YP4vQDsvqG0cvO2UIJ0I-6" edge="1">
          <mxGeometry x="-0.7412" y="-8" relative="1" as="geometry">
            <mxPoint x="55" y="237" as="sourcePoint" />
            <Array as="points">
              <mxPoint x="85" y="267" />
            </Array>
            <mxPoint x="60" y="267.00000000000006" as="targetPoint" />
            <mxPoint as="offset" />
          </mxGeometry>
        </mxCell>
        <mxCell id="YP4vQDsvqG0cvO2UIJ0I-10" value="&lt;div style=&quot;padding-top: 0px; padding-right: 20px;&quot; align=&quot;center&quot;&gt;API&lt;/div&gt;" style="shape=module;align=center;spacingLeft=20;align=center;verticalAlign=top;whiteSpace=wrap;html=1;" parent="1" vertex="1">
          <mxGeometry x="270" y="30" width="120" height="50" as="geometry" />
        </mxCell>
        <mxCell id="YP4vQDsvqG0cvO2UIJ0I-11" value="InternshipManager" style="shape=module;align=left;spacingLeft=20;align=center;verticalAlign=top;whiteSpace=wrap;html=1;" parent="1" vertex="1">
          <mxGeometry x="489" y="30" width="135" height="50" as="geometry" />
        </mxCell>
        <mxCell id="YP4vQDsvqG0cvO2UIJ0I-12" value="" style="edgeStyle=elbowEdgeStyle;fontSize=12;html=1;endArrow=blockThin;endFill=1;rounded=0;" parent="1" edge="1">
          <mxGeometry width="160" relative="1" as="geometry">
            <mxPoint x="335" y="134" as="sourcePoint" />
            <mxPoint x="559.5" y="134" as="targetPoint" />
            <Array as="points">
              <mxPoint x="489" y="134" />
            </Array>
          </mxGeometry>
        </mxCell>
        <mxCell id="YP4vQDsvqG0cvO2UIJ0I-13" value="" style="edgeStyle=elbowEdgeStyle;fontSize=12;html=1;endArrow=blockThin;endFill=1;rounded=0;" parent="1" source="YP4vQDsvqG0cvO2UIJ0I-3" edge="1">
          <mxGeometry width="160" relative="1" as="geometry">
            <mxPoint x="640.0000000000001" y="268" as="sourcePoint" />
            <mxPoint x="794.22" y="268.13" as="targetPoint" />
            <Array as="points">
              <mxPoint x="784.22" y="268.13" />
            </Array>
          </mxGeometry>
        </mxCell>
        <mxCell id="YP4vQDsvqG0cvO2UIJ0I-14" value="Database" style="shape=module;align=left;spacingLeft=20;align=center;verticalAlign=top;whiteSpace=wrap;html=1;" parent="1" vertex="1">
          <mxGeometry x="730" y="30" width="120" height="50" as="geometry" />
        </mxCell>
        <mxCell id="YP4vQDsvqG0cvO2UIJ0I-23" value="closeInternshipById(internshipData)" style="text;html=1;align=center;verticalAlign=middle;resizable=0;points=[];autosize=1;strokeColor=none;fillColor=none;" parent="1" vertex="1">
          <mxGeometry x="565" y="243" width="220" height="30" as="geometry" />
        </mxCell>
        <mxCell id="YP4vQDsvqG0cvO2UIJ0I-25" value="ok" style="html=1;verticalAlign=bottom;endArrow=open;dashed=1;endSize=8;curved=0;rounded=0;" parent="1" edge="1">
          <mxGeometry x="-0.0028" relative="1" as="geometry">
            <mxPoint x="788" y="390.5" as="sourcePoint" />
            <mxPoint x="565" y="390.5" as="targetPoint" />
            <mxPoint as="offset" />
          </mxGeometry>
        </mxCell>
        <mxCell id="YP4vQDsvqG0cvO2UIJ0I-26" value="ProfilePage" style="html=1;verticalAlign=bottom;endArrow=open;dashed=1;endSize=8;curved=0;rounded=0;" parent="1" edge="1">
          <mxGeometry x="-0.0028" relative="1" as="geometry">
            <mxPoint x="555" y="400" as="sourcePoint" />
            <mxPoint x="335" y="400" as="targetPoint" />
            <mxPoint as="offset" />
          </mxGeometry>
        </mxCell>
        <mxCell id="YP4vQDsvqG0cvO2UIJ0I-27" value="InternshipProfilePage" style="html=1;verticalAlign=bottom;endArrow=open;dashed=1;endSize=8;curved=0;rounded=0;" parent="1" edge="1">
          <mxGeometry x="-0.0043" relative="1" as="geometry">
            <mxPoint x="554.9999999999998" y="470" as="sourcePoint" />
            <mxPoint x="335" y="470" as="targetPoint" />
            <mxPoint as="offset" />
          </mxGeometry>
        </mxCell>
        <mxCell id="YP4vQDsvqG0cvO2UIJ0I-28" value="error" style="html=1;verticalAlign=bottom;endArrow=open;dashed=1;endSize=8;curved=0;rounded=0;" parent="1" edge="1">
          <mxGeometry x="-0.0028" relative="1" as="geometry">
            <mxPoint x="788" y="458.5" as="sourcePoint" />
            <mxPoint x="565" y="458.5" as="targetPoint" />
            <mxPoint as="offset" />
          </mxGeometry>
        </mxCell>
        <mxCell id="HYI0iJHY5qo_N9zJbSM3-1" value="closeInternship(internshipData)" style="text;html=1;align=center;verticalAlign=middle;resizable=0;points=[];autosize=1;strokeColor=none;fillColor=none;" parent="1" vertex="1">
          <mxGeometry x="350" y="110" width="190" height="30" as="geometry" />
        </mxCell>
        <mxCell id="HYI0iJHY5qo_N9zJbSM3-3" value="alternative" style="shape=umlFrame;whiteSpace=wrap;html=1;pointerEvents=0;width=70;height=30;" parent="1" vertex="1">
          <mxGeometry x="110" y="330" width="770" height="170" as="geometry" />
        </mxCell>
        <mxCell id="HYI0iJHY5qo_N9zJbSM3-4" value="if writeToDb(internshipData)" style="text;html=1;align=center;verticalAlign=middle;resizable=0;points=[];autosize=1;strokeColor=none;fillColor=none;labelBackgroundColor=default;" parent="1" vertex="1">
          <mxGeometry x="110" y="360" width="170" height="30" as="geometry" />
        </mxCell>
        <mxCell id="HYI0iJHY5qo_N9zJbSM3-5" value="" style="endArrow=none;dashed=1;html=1;rounded=0;exitX=0.014;exitY=0.49;exitDx=0;exitDy=0;exitPerimeter=0;entryX=0.999;entryY=0.751;entryDx=0;entryDy=0;entryPerimeter=0;" parent="1" edge="1">
          <mxGeometry width="50" height="50" relative="1" as="geometry">
            <mxPoint x="109.99999999999996" y="427" as="sourcePoint" />
            <mxPoint x="879.23" y="427.15999999999985" as="targetPoint" />
          </mxGeometry>
        </mxCell>
        <mxCell id="HYI0iJHY5qo_N9zJbSM3-6" value="else" style="text;html=1;align=center;verticalAlign=middle;resizable=0;points=[];autosize=1;strokeColor=none;fillColor=none;" parent="1" vertex="1">
          <mxGeometry x="107" y="427" width="50" height="30" as="geometry" />
        </mxCell>
        <mxCell id="HYI0iJHY5qo_N9zJbSM3-7" value="redirectToInternshipProfilePage(message)" style="html=1;verticalAlign=bottom;endArrow=open;dashed=1;endSize=8;curved=0;rounded=0;" parent="1" source="vXKSp53bt_YOnUHlEbE3-1" edge="1">
          <mxGeometry y="-4" relative="1" as="geometry">
            <mxPoint x="309.5" y="489.99999999999994" as="sourcePoint" />
            <mxPoint x="130" y="489.99999999999994" as="targetPoint" />
            <mxPoint as="offset" />
          </mxGeometry>
        </mxCell>
        <mxCell id="HYI0iJHY5qo_N9zJbSM3-9" value="InternshipProfilePage" style="html=1;verticalAlign=bottom;endArrow=open;dashed=1;endSize=8;curved=0;rounded=0;" parent="1" edge="1">
          <mxGeometry x="-0.0043" relative="1" as="geometry">
            <mxPoint x="554.9999999999998" y="560" as="sourcePoint" />
            <mxPoint x="335" y="560" as="targetPoint" />
            <mxPoint as="offset" />
          </mxGeometry>
        </mxCell>
        <mxCell id="HYI0iJHY5qo_N9zJbSM3-10" value="redirectToInternshipProfilePage(message)" style="html=1;verticalAlign=bottom;endArrow=open;dashed=1;endSize=8;curved=0;rounded=0;" parent="1" edge="1">
          <mxGeometry y="-4" relative="1" as="geometry">
            <mxPoint x="325" y="580" as="sourcePoint" />
            <mxPoint x="130" y="580" as="targetPoint" />
            <mxPoint as="offset" />
          </mxGeometry>
        </mxCell>
      </root>
    </mxGraphModel>
  </diagram>
</mxfile>
